<mxfile host="app.diagrams.net" agent="Mozilla/5.0 (Macintosh; Intel Mac OS X 10_15_7) AppleWebKit/537.36 (KHTML, like Gecko) Chrome/141.0.0.0 Safari/537.36" version="28.2.7">
  <diagram name="PÃ¡gina-1" id="ZVmmRiMxHabcyi0y2Mfp">
    <mxGraphModel dx="2027" dy="1362" grid="1" gridSize="10" guides="1" tooltips="1" connect="1" arrows="1" fold="1" page="1" pageScale="1" pageWidth="827" pageHeight="1169" math="0" shadow="0">
      <root>
        <mxCell id="0" />
        <mxCell id="1" parent="0" />
        <mxCell id="JZL5qLpyByj6C1aX7s6Q-19" style="edgeStyle=orthogonalEdgeStyle;rounded=0;orthogonalLoop=1;jettySize=auto;html=1;" edge="1" parent="1" source="JZL5qLpyByj6C1aX7s6Q-3" target="JZL5qLpyByj6C1aX7s6Q-17">
          <mxGeometry relative="1" as="geometry" />
        </mxCell>
        <mxCell id="JZL5qLpyByj6C1aX7s6Q-3" value="users" style="sketch=0;outlineConnect=0;gradientColor=none;fontColor=#545B64;strokeColor=none;fillColor=#879196;dashed=0;verticalLabelPosition=bottom;verticalAlign=top;align=center;html=1;fontSize=12;fontStyle=0;aspect=fixed;shape=mxgraph.aws4.illustration_users;pointerEvents=1" vertex="1" parent="1">
          <mxGeometry x="550" y="50" width="100" height="100" as="geometry" />
        </mxCell>
        <mxCell id="JZL5qLpyByj6C1aX7s6Q-4" value="Server contents" style="points=[[0,0],[0.25,0],[0.5,0],[0.75,0],[1,0],[1,0.25],[1,0.5],[1,0.75],[1,1],[0.75,1],[0.5,1],[0.25,1],[0,1],[0,0.75],[0,0.5],[0,0.25]];outlineConnect=0;gradientColor=none;html=1;whiteSpace=wrap;fontSize=12;fontStyle=0;container=1;pointerEvents=0;collapsible=0;recursiveResize=0;shape=mxgraph.aws4.group;grIcon=mxgraph.aws4.group_on_premise;strokeColor=#7D8998;fillColor=none;verticalAlign=top;align=left;spacingLeft=30;fontColor=#5A6C86;dashed=0;" vertex="1" parent="1">
          <mxGeometry x="1140" y="320" width="330" height="550" as="geometry" />
        </mxCell>
        <mxCell id="JZL5qLpyByj6C1aX7s6Q-12" value="" style="sketch=0;outlineConnect=0;fontColor=#232F3E;gradientColor=none;fillColor=#232F3D;strokeColor=none;dashed=0;verticalLabelPosition=bottom;verticalAlign=top;align=center;html=1;fontSize=12;fontStyle=0;aspect=fixed;pointerEvents=1;shape=mxgraph.aws4.servers;" vertex="1" parent="JZL5qLpyByj6C1aX7s6Q-4">
          <mxGeometry x="50" y="60" width="78" height="78" as="geometry" />
        </mxCell>
        <mxCell id="JZL5qLpyByj6C1aX7s6Q-13" value="" style="sketch=0;outlineConnect=0;fontColor=#232F3E;gradientColor=none;fillColor=#232F3D;strokeColor=none;dashed=0;verticalLabelPosition=bottom;verticalAlign=top;align=center;html=1;fontSize=12;fontStyle=0;aspect=fixed;pointerEvents=1;shape=mxgraph.aws4.servers;" vertex="1" parent="JZL5qLpyByj6C1aX7s6Q-4">
          <mxGeometry x="190" y="60" width="78" height="78" as="geometry" />
        </mxCell>
        <mxCell id="JZL5qLpyByj6C1aX7s6Q-14" value="Application Server" style="text;html=1;whiteSpace=wrap;strokeColor=none;fillColor=none;align=center;verticalAlign=middle;rounded=0;" vertex="1" parent="JZL5qLpyByj6C1aX7s6Q-4">
          <mxGeometry x="58" y="150" width="210" height="30" as="geometry" />
        </mxCell>
        <mxCell id="JZL5qLpyByj6C1aX7s6Q-47" value="" style="image;html=1;image=img/lib/clip_art/computers/Database_128x128.png" vertex="1" parent="JZL5qLpyByj6C1aX7s6Q-4">
          <mxGeometry x="140" y="380" width="80" height="80" as="geometry" />
        </mxCell>
        <mxCell id="JZL5qLpyByj6C1aX7s6Q-50" style="edgeStyle=orthogonalEdgeStyle;rounded=0;orthogonalLoop=1;jettySize=auto;html=1;" edge="1" parent="1" source="JZL5qLpyByj6C1aX7s6Q-15" target="JZL5qLpyByj6C1aX7s6Q-48">
          <mxGeometry relative="1" as="geometry" />
        </mxCell>
        <mxCell id="JZL5qLpyByj6C1aX7s6Q-15" value="AWS Cloud" style="points=[[0,0],[0.25,0],[0.5,0],[0.75,0],[1,0],[1,0.25],[1,0.5],[1,0.75],[1,1],[0.75,1],[0.5,1],[0.25,1],[0,1],[0,0.75],[0,0.5],[0,0.25]];outlineConnect=0;gradientColor=none;html=1;whiteSpace=wrap;fontSize=12;fontStyle=0;container=1;pointerEvents=0;collapsible=0;recursiveResize=0;shape=mxgraph.aws4.group;grIcon=mxgraph.aws4.group_aws_cloud_alt;strokeColor=#232F3E;fillColor=none;verticalAlign=top;align=left;spacingLeft=30;fontColor=#232F3E;dashed=0;" vertex="1" parent="1">
          <mxGeometry x="30" y="330" width="760" height="670" as="geometry" />
        </mxCell>
        <mxCell id="JZL5qLpyByj6C1aX7s6Q-26" value="Availability Zone" style="fillColor=none;strokeColor=#147EBA;dashed=1;verticalAlign=top;fontStyle=0;fontColor=#147EBA;whiteSpace=wrap;html=1;" vertex="1" parent="JZL5qLpyByj6C1aX7s6Q-15">
          <mxGeometry x="20" y="50" width="340" height="420" as="geometry" />
        </mxCell>
        <mxCell id="JZL5qLpyByj6C1aX7s6Q-30" value="Auto Scaling group" style="points=[[0,0],[0.25,0],[0.5,0],[0.75,0],[1,0],[1,0.25],[1,0.5],[1,0.75],[1,1],[0.75,1],[0.5,1],[0.25,1],[0,1],[0,0.75],[0,0.5],[0,0.25]];outlineConnect=0;gradientColor=none;html=1;whiteSpace=wrap;fontSize=12;fontStyle=0;container=1;pointerEvents=0;collapsible=0;recursiveResize=0;shape=mxgraph.aws4.groupCenter;grIcon=mxgraph.aws4.group_auto_scaling_group;grStroke=1;strokeColor=#D86613;fillColor=none;verticalAlign=top;align=center;fontColor=#D86613;dashed=1;spacingTop=25;" vertex="1" parent="JZL5qLpyByj6C1aX7s6Q-15">
          <mxGeometry x="30" y="71.5" width="310" height="198.5" as="geometry" />
        </mxCell>
        <mxCell id="JZL5qLpyByj6C1aX7s6Q-28" value="" style="outlineConnect=0;dashed=0;verticalLabelPosition=bottom;verticalAlign=top;align=center;html=1;shape=mxgraph.aws3.ec2;fillColor=#F58534;gradientColor=none;" vertex="1" parent="JZL5qLpyByj6C1aX7s6Q-30">
          <mxGeometry x="120" y="69.25" width="50" height="60" as="geometry" />
        </mxCell>
        <mxCell id="JZL5qLpyByj6C1aX7s6Q-31" value="EC2" style="text;html=1;whiteSpace=wrap;strokeColor=none;fillColor=none;align=center;verticalAlign=middle;rounded=0;" vertex="1" parent="JZL5qLpyByj6C1aX7s6Q-30">
          <mxGeometry x="115" y="138.5" width="60" height="30" as="geometry" />
        </mxCell>
        <mxCell id="JZL5qLpyByj6C1aX7s6Q-33" value="" style="sketch=0;points=[[0,0,0],[0.25,0,0],[0.5,0,0],[0.75,0,0],[1,0,0],[0,1,0],[0.25,1,0],[0.5,1,0],[0.75,1,0],[1,1,0],[0,0.25,0],[0,0.5,0],[0,0.75,0],[1,0.25,0],[1,0.5,0],[1,0.75,0]];outlineConnect=0;fontColor=#232F3E;fillColor=#C925D1;strokeColor=#ffffff;dashed=0;verticalLabelPosition=bottom;verticalAlign=top;align=center;html=1;fontSize=12;fontStyle=0;aspect=fixed;shape=mxgraph.aws4.resourceIcon;resIcon=mxgraph.aws4.rds;" vertex="1" parent="JZL5qLpyByj6C1aX7s6Q-15">
          <mxGeometry x="136" y="340" width="78" height="78" as="geometry" />
        </mxCell>
        <mxCell id="JZL5qLpyByj6C1aX7s6Q-34" style="edgeStyle=orthogonalEdgeStyle;rounded=0;orthogonalLoop=1;jettySize=auto;html=1;" edge="1" parent="JZL5qLpyByj6C1aX7s6Q-15" source="JZL5qLpyByj6C1aX7s6Q-31" target="JZL5qLpyByj6C1aX7s6Q-33">
          <mxGeometry relative="1" as="geometry" />
        </mxCell>
        <mxCell id="JZL5qLpyByj6C1aX7s6Q-27" value="Availability Zone" style="fillColor=none;strokeColor=#147EBA;dashed=1;verticalAlign=top;fontStyle=0;fontColor=#147EBA;whiteSpace=wrap;html=1;" vertex="1" parent="JZL5qLpyByj6C1aX7s6Q-15">
          <mxGeometry x="430" y="45" width="280" height="425" as="geometry" />
        </mxCell>
        <mxCell id="JZL5qLpyByj6C1aX7s6Q-35" value="Auto Scaling group" style="points=[[0,0],[0.25,0],[0.5,0],[0.75,0],[1,0],[1,0.25],[1,0.5],[1,0.75],[1,1],[0.75,1],[0.5,1],[0.25,1],[0,1],[0,0.75],[0,0.5],[0,0.25]];outlineConnect=0;gradientColor=none;html=1;whiteSpace=wrap;fontSize=12;fontStyle=0;container=1;pointerEvents=0;collapsible=0;recursiveResize=0;shape=mxgraph.aws4.groupCenter;grIcon=mxgraph.aws4.group_auto_scaling_group;grStroke=1;strokeColor=#D86613;fillColor=none;verticalAlign=top;align=center;fontColor=#D86613;dashed=1;spacingTop=25;" vertex="1" parent="JZL5qLpyByj6C1aX7s6Q-15">
          <mxGeometry x="450" y="87.5" width="250" height="162.5" as="geometry" />
        </mxCell>
        <mxCell id="JZL5qLpyByj6C1aX7s6Q-37" value="EC2" style="text;html=1;whiteSpace=wrap;strokeColor=none;fillColor=none;align=center;verticalAlign=middle;rounded=0;" vertex="1" parent="JZL5qLpyByj6C1aX7s6Q-35">
          <mxGeometry x="90" y="132.5" width="60" height="30" as="geometry" />
        </mxCell>
        <mxCell id="JZL5qLpyByj6C1aX7s6Q-36" value="" style="outlineConnect=0;dashed=0;verticalLabelPosition=bottom;verticalAlign=top;align=center;html=1;shape=mxgraph.aws3.ec2;fillColor=#F58534;gradientColor=none;" vertex="1" parent="JZL5qLpyByj6C1aX7s6Q-15">
          <mxGeometry x="545" y="156.75" width="50" height="60" as="geometry" />
        </mxCell>
        <mxCell id="JZL5qLpyByj6C1aX7s6Q-38" value="" style="sketch=0;points=[[0,0,0],[0.25,0,0],[0.5,0,0],[0.75,0,0],[1,0,0],[0,1,0],[0.25,1,0],[0.5,1,0],[0.75,1,0],[1,1,0],[0,0.25,0],[0,0.5,0],[0,0.75,0],[1,0.25,0],[1,0.5,0],[1,0.75,0]];outlineConnect=0;fontColor=#232F3E;fillColor=#C925D1;strokeColor=#ffffff;dashed=0;verticalLabelPosition=bottom;verticalAlign=top;align=center;html=1;fontSize=12;fontStyle=0;aspect=fixed;shape=mxgraph.aws4.resourceIcon;resIcon=mxgraph.aws4.rds;" vertex="1" parent="JZL5qLpyByj6C1aX7s6Q-15">
          <mxGeometry x="531" y="340" width="78" height="78" as="geometry" />
        </mxCell>
        <mxCell id="JZL5qLpyByj6C1aX7s6Q-39" style="edgeStyle=orthogonalEdgeStyle;rounded=0;orthogonalLoop=1;jettySize=auto;html=1;" edge="1" parent="JZL5qLpyByj6C1aX7s6Q-15" source="JZL5qLpyByj6C1aX7s6Q-37" target="JZL5qLpyByj6C1aX7s6Q-38">
          <mxGeometry relative="1" as="geometry" />
        </mxCell>
        <mxCell id="JZL5qLpyByj6C1aX7s6Q-41" style="edgeStyle=orthogonalEdgeStyle;rounded=0;orthogonalLoop=1;jettySize=auto;html=1;" edge="1" parent="JZL5qLpyByj6C1aX7s6Q-15" source="JZL5qLpyByj6C1aX7s6Q-40" target="JZL5qLpyByj6C1aX7s6Q-28">
          <mxGeometry relative="1" as="geometry" />
        </mxCell>
        <mxCell id="JZL5qLpyByj6C1aX7s6Q-40" value="" style="image;sketch=0;aspect=fixed;html=1;points=[];align=center;fontSize=12;image=img/lib/mscae/Cache_Redis_Product.svg;" vertex="1" parent="JZL5qLpyByj6C1aX7s6Q-15">
          <mxGeometry x="370" y="130" width="50" height="42" as="geometry" />
        </mxCell>
        <mxCell id="JZL5qLpyByj6C1aX7s6Q-42" style="edgeStyle=orthogonalEdgeStyle;rounded=0;orthogonalLoop=1;jettySize=auto;html=1;entryX=0;entryY=0.5;entryDx=0;entryDy=0;entryPerimeter=0;" edge="1" parent="JZL5qLpyByj6C1aX7s6Q-15" source="JZL5qLpyByj6C1aX7s6Q-40" target="JZL5qLpyByj6C1aX7s6Q-36">
          <mxGeometry relative="1" as="geometry" />
        </mxCell>
        <mxCell id="JZL5qLpyByj6C1aX7s6Q-25" style="edgeStyle=orthogonalEdgeStyle;rounded=0;orthogonalLoop=1;jettySize=auto;html=1;entryX=0.5;entryY=0;entryDx=0;entryDy=0;" edge="1" parent="1" source="JZL5qLpyByj6C1aX7s6Q-17" target="JZL5qLpyByj6C1aX7s6Q-27">
          <mxGeometry relative="1" as="geometry">
            <mxPoint x="445" y="380" as="targetPoint" />
          </mxGeometry>
        </mxCell>
        <mxCell id="JZL5qLpyByj6C1aX7s6Q-17" value="" style="sketch=0;outlineConnect=0;fontColor=#232F3E;gradientColor=none;fillColor=#8C4FFF;strokeColor=none;dashed=0;verticalLabelPosition=bottom;verticalAlign=top;align=center;html=1;fontSize=12;fontStyle=0;aspect=fixed;pointerEvents=1;shape=mxgraph.aws4.gateway_load_balancer;" vertex="1" parent="1">
          <mxGeometry x="200" y="200" width="78" height="78" as="geometry" />
        </mxCell>
        <mxCell id="JZL5qLpyByj6C1aX7s6Q-18" value="Load Balancer" style="text;html=1;whiteSpace=wrap;strokeColor=none;fillColor=none;align=center;verticalAlign=middle;rounded=0;" vertex="1" parent="1">
          <mxGeometry x="290" y="224" width="60" height="30" as="geometry" />
        </mxCell>
        <mxCell id="JZL5qLpyByj6C1aX7s6Q-24" style="edgeStyle=orthogonalEdgeStyle;rounded=0;orthogonalLoop=1;jettySize=auto;html=1;entryX=0.404;entryY=0.006;entryDx=0;entryDy=0;entryPerimeter=0;" edge="1" parent="1" source="JZL5qLpyByj6C1aX7s6Q-17">
          <mxGeometry relative="1" as="geometry">
            <mxPoint x="142.92000000000007" y="381.98" as="targetPoint" />
          </mxGeometry>
        </mxCell>
        <mxCell id="JZL5qLpyByj6C1aX7s6Q-43" style="edgeStyle=orthogonalEdgeStyle;rounded=0;orthogonalLoop=1;jettySize=auto;html=1;" edge="1" parent="1" source="JZL5qLpyByj6C1aX7s6Q-12">
          <mxGeometry relative="1" as="geometry">
            <mxPoint x="800" y="440" as="targetPoint" />
          </mxGeometry>
        </mxCell>
        <mxCell id="JZL5qLpyByj6C1aX7s6Q-44" value="static contents" style="edgeLabel;html=1;align=center;verticalAlign=middle;resizable=0;points=[];" vertex="1" connectable="0" parent="JZL5qLpyByj6C1aX7s6Q-43">
          <mxGeometry x="0.6295" relative="1" as="geometry">
            <mxPoint as="offset" />
          </mxGeometry>
        </mxCell>
        <mxCell id="JZL5qLpyByj6C1aX7s6Q-51" style="edgeStyle=orthogonalEdgeStyle;rounded=0;orthogonalLoop=1;jettySize=auto;html=1;" edge="1" parent="1" source="JZL5qLpyByj6C1aX7s6Q-48" target="JZL5qLpyByj6C1aX7s6Q-47">
          <mxGeometry relative="1" as="geometry" />
        </mxCell>
        <mxCell id="JZL5qLpyByj6C1aX7s6Q-48" value="" style="sketch=0;outlineConnect=0;fontColor=#232F3E;gradientColor=none;fillColor=#8C4FFF;strokeColor=none;dashed=0;verticalLabelPosition=bottom;verticalAlign=top;align=center;html=1;fontSize=12;fontStyle=0;aspect=fixed;pointerEvents=1;shape=mxgraph.aws4.customer_gateway;" vertex="1" parent="1">
          <mxGeometry x="940" y="600" width="78" height="78" as="geometry" />
        </mxCell>
        <mxCell id="JZL5qLpyByj6C1aX7s6Q-49" value="VPC ROUTER" style="text;html=1;whiteSpace=wrap;strokeColor=none;fillColor=none;align=center;verticalAlign=middle;rounded=0;" vertex="1" parent="1">
          <mxGeometry x="950" y="700" width="60" height="30" as="geometry" />
        </mxCell>
        <mxCell id="JZL5qLpyByj6C1aX7s6Q-52" value="HTTP GET" style="text;html=1;whiteSpace=wrap;strokeColor=none;fillColor=none;align=center;verticalAlign=middle;rounded=0;" vertex="1" parent="1">
          <mxGeometry x="840" y="390" width="60" height="30" as="geometry" />
        </mxCell>
        <mxCell id="JZL5qLpyByj6C1aX7s6Q-53" value="JDBC" style="text;html=1;whiteSpace=wrap;strokeColor=none;fillColor=none;align=center;verticalAlign=middle;rounded=0;" vertex="1" parent="1">
          <mxGeometry x="1240" y="590" width="60" height="30" as="geometry" />
        </mxCell>
      </root>
    </mxGraphModel>
  </diagram>
</mxfile>
